<?xml version="1.0" encoding="UTF-8"?>
<svg id="_레이어_2" data-name="레이어 2" xmlns="http://www.w3.org/2000/svg" xmlns:xlink="http://www.w3.org/1999/xlink" viewBox="0 0 415.41 244.59">
  <defs>
    <style>
      .cls-1 {
        fill: url(#linear-gradient);
      }

      .cls-2 {
        fill: #333;
      }

      .cls-3 {
        fill: #1f3566;
      }
    </style>
    <linearGradient id="linear-gradient" x1="180.04" y1="12.09" x2="235.35" y2="107.88" gradientUnits="userSpaceOnUse">
      <stop offset="0" stop-color="#0057bf"/>
      <stop offset="1" stop-color="#00ffe6"/>
    </linearGradient>
  </defs>
  <g id="Layer_1" data-name="Layer 1">
    <g>
      <g>
        <path class="cls-3" d="M0,141.96H27.61l13.48,28.7,13.37,28.8,13.37-28.8,13.37-28.7h27.72v76.09h-18.48l.11-37.93,.11-21.2-9.56,21.2-17.39,37.93h-19.24l-17.39-37.93-9.57-21.2,.11,21.2,.11,37.93H0v-76.09Z"/>
        <path class="cls-3" d="M195.75,174.46c-2.61-12.5-15.43-20.54-31.52-20.54-18.8,0-31.96,10.33-31.96,26.2s13.15,25.98,31.74,25.98c16.52,0,29.35-8.37,31.74-21.2h19.24c-3.04,21.09-24.13,35.11-51.2,35.11-29.78,0-51.09-15.87-51.09-39.89s21.41-40.11,51.2-40.11c26.96,0,48.04,13.7,51.09,34.46h-19.24Z"/>
        <path class="cls-3" d="M220.75,141.96h27.61l13.48,28.7,13.37,28.8,13.37-28.8,13.37-28.7h27.72v76.09h-18.48l.11-37.93,.11-21.2-9.57,21.2-17.39,37.93h-19.24l-17.39-37.93-9.56-21.2,.11,21.2,.11,37.93h-17.72v-76.09Z"/>
        <path class="cls-3" d="M335.2,141.96h18.91v62.5h61.3v13.59h-80.22v-76.09Z"/>
      </g>
      <g>
        <path class="cls-2" d="M.6,229.65H4.85l2.07,4.41,2.05,4.43,2.06-4.43,2.06-4.41h4.26v11.7h-2.84l.02-5.83,.02-3.26-1.47,3.26-2.67,5.83h-2.96l-2.67-5.83-1.47-3.26,.02,3.26,.02,5.83H.6v-11.7Z"/>
        <path class="cls-2" d="M18.41,237.27v-5.11h2.77v4.68c0,1.84,1.2,2.77,2.92,2.77,1.29,0,2.39-.58,3.02-1.44v-6.01h2.77v9.19h-2.77v-1.5c-.95,1.1-2.34,1.72-4.01,1.72-2.81,0-4.71-1.67-4.71-4.29Z"/>
        <path class="cls-2" d="M31.02,229.65h2.76v11.7h-2.76v-11.7Z"/>
        <path class="cls-2" d="M37.87,238.63v-4.58h-3.27v-1.89h3.27v-2.01h2.72v2.01h4.13v1.89h-4.13v4.23c0,.8,.48,1.15,1.52,1.15h2.61v1.92h-3.79c-2.1,0-3.06-.94-3.06-2.72Z"/>
        <path class="cls-2" d="M45.54,229.44h2.76v1.9h-2.76v-1.9Zm0,2.72h2.76v9.19h-2.76v-9.19Z"/>
        <path class="cls-2" d="M49.42,232.16h2.79v1.47c.94-1.07,2.29-1.69,3.89-1.69,1.72,0,3.09,.7,3.83,1.9,1.05-1.22,2.56-1.9,4.39-1.9,2.72,0,4.59,1.65,4.59,4.29v5.11h-2.76v-4.68c0-1.84-1.17-2.76-2.82-2.76-1.17,0-2.17,.47-2.89,1.22,.08,.35,.12,.72,.12,1.1v5.11h-2.77v-4.68c0-1.84-1.1-2.76-2.66-2.76-1.25,0-2.31,.55-2.92,1.39v6.05h-2.79v-9.19Z"/>
        <path class="cls-2" d="M69.75,236.77c0-2.87,2.74-4.91,6.2-4.91s6.15,1.95,6.15,5.11v.17h-9.59c.18,1.6,1.54,2.64,3.44,2.64,1.54,0,2.71-.65,3.24-1.75h2.76c-.72,2.14-2.99,3.63-6.03,3.63-3.51,0-6.17-2-6.17-4.88Zm2.91-1.04h6.57c-.45-1.25-1.69-2.04-3.31-2.04s-2.82,.8-3.26,2.04Z"/>
        <path class="cls-2" d="M82.81,236.76c0-2.81,2.31-4.81,5.56-4.81,1.85,0,3.43,.72,4.36,1.94v-4.23h2.77v11.7h-2.77v-1.72c-.94,1.22-2.51,1.94-4.36,1.94-3.27,0-5.56-1.99-5.56-4.81Zm9.92,.02c0-1.8-1.49-2.99-3.61-2.99s-3.54,1.19-3.54,2.96,1.44,2.99,3.54,2.99,3.61-1.2,3.61-2.96Z"/>
        <path class="cls-2" d="M96.64,229.44h2.76v1.9h-2.76v-1.9Zm0,2.72h2.76v9.19h-2.76v-9.19Z"/>
        <path class="cls-2" d="M100.25,238.91c0-2.46,3.32-2.64,5.93-2.97,1.6-.2,2.69-.42,2.69-1.1,0-.64-.85-1.15-2.47-1.15-1.75,0-2.89,.73-3.26,1.79h-2.62c.55-2.04,2.82-3.56,5.98-3.56s5.15,1.29,5.15,3.78v5.66h-2.74v-1.35c-1.07,1.05-2.61,1.57-4.43,1.57-2.61,0-4.23-1.07-4.23-2.66Zm4.83,1.04c1.4,0,2.96-.48,3.83-1.39v-1.77c-.63,.4-1.72,.53-2.79,.67-1.65,.22-3.14,.37-3.14,1.39,0,.69,.77,1.1,2.11,1.1Z"/>
        <path class="cls-2" d="M129.51,234.65c-.4-1.92-2.37-3.16-4.85-3.16-2.89,0-4.91,1.59-4.91,4.03s2.02,3.99,4.88,3.99c2.54,0,4.51-1.29,4.88-3.26h2.96c-.47,3.24-3.71,5.4-7.87,5.4-4.58,0-7.85-2.44-7.85-6.13s3.29-6.17,7.87-6.17c4.14,0,7.39,2.1,7.85,5.3h-2.96Z"/>
        <path class="cls-2" d="M133.2,236.77c0-2.89,2.69-4.91,6.35-4.91s6.35,2.02,6.35,4.91-2.66,4.88-6.35,4.88-6.35-2.02-6.35-4.88Zm9.92-.03c0-1.79-1.49-2.97-3.58-2.97s-3.58,1.19-3.58,2.97,1.49,3.01,3.58,3.01,3.58-1.2,3.58-3.01Z"/>
        <path class="cls-2" d="M146.76,232.16h2.79v1.47c.94-1.07,2.29-1.69,3.89-1.69,1.72,0,3.09,.7,3.83,1.9,1.05-1.22,2.56-1.9,4.39-1.9,2.72,0,4.59,1.65,4.59,4.29v5.11h-2.76v-4.68c0-1.84-1.17-2.76-2.82-2.76-1.17,0-2.17,.47-2.89,1.22,.08,.35,.12,.72,.12,1.1v5.11h-2.77v-4.68c0-1.84-1.1-2.76-2.66-2.76-1.25,0-2.31,.55-2.92,1.39v6.05h-2.79v-9.19Z"/>
        <path class="cls-2" d="M167.33,232.16h2.77v1.74c.94-1.24,2.51-1.95,4.36-1.95,3.29,0,5.56,1.97,5.56,4.8s-2.31,4.83-5.56,4.83c-1.85,0-3.43-.72-4.36-1.94l.02,4.78h-2.79v-12.25Zm9.94,4.59c0-1.79-1.45-2.97-3.54-2.97s-3.61,1.2-3.61,2.97,1.47,2.97,3.61,2.97,3.54-1.2,3.54-2.97Z"/>
        <path class="cls-2" d="M180.84,237.27v-5.11h2.77v4.68c0,1.84,1.2,2.77,2.92,2.77,1.29,0,2.39-.58,3.02-1.44v-6.01h2.77v9.19h-2.77v-1.5c-.95,1.1-2.34,1.72-4.01,1.72-2.81,0-4.71-1.67-4.71-4.29Z"/>
        <path class="cls-2" d="M196.41,238.63v-4.58h-3.27v-1.89h3.27v-2.01h2.72v2.01h4.13v1.89h-4.13v4.23c0,.8,.48,1.15,1.52,1.15h2.61v1.92h-3.79c-2.1,0-3.06-.94-3.06-2.72Z"/>
        <path class="cls-2" d="M204.08,229.44h2.76v1.9h-2.76v-1.9Zm0,2.72h2.76v9.19h-2.76v-9.19Z"/>
        <path class="cls-2" d="M207.96,232.16h2.79v1.49c.95-1.09,2.34-1.7,3.99-1.7,2.81,0,4.71,1.65,4.71,4.29v5.11h-2.77v-4.68c0-1.82-1.19-2.76-2.91-2.76-1.29,0-2.39,.55-3.02,1.4v6.03h-2.79v-9.19Z"/>
        <path class="cls-2" d="M220.27,236.66c0-2.76,2.31-4.71,5.56-4.71,1.85,0,3.43,.7,4.36,1.89v-1.67h2.77v8.17c0,2.74-2.32,4.26-6.23,4.26-3.27,0-5.43-1.07-6.08-2.87h2.82c.45,.89,1.45,1.32,3.27,1.32,2.16,0,3.44-.84,3.44-2.44v-1.15c-.94,1.2-2.51,1.9-4.36,1.9-3.27,0-5.56-1.94-5.56-4.69Zm9.92,0c0-1.74-1.49-2.87-3.61-2.87s-3.54,1.14-3.54,2.86,1.44,2.87,3.54,2.87,3.61-1.15,3.61-2.86Z"/>
        <path class="cls-2" d="M238.35,229.65h4.24l2.07,4.41,2.06,4.43,2.05-4.43,2.06-4.41h4.26v11.7h-2.84l.02-5.83,.02-3.26-1.47,3.26-2.67,5.83h-2.96l-2.67-5.83-1.47-3.26,.02,3.26,.02,5.83h-2.72v-11.7Z"/>
        <path class="cls-2" d="M255.95,238.91c0-2.46,3.33-2.64,5.93-2.97,1.6-.2,2.69-.42,2.69-1.1,0-.64-.85-1.15-2.47-1.15-1.75,0-2.89,.73-3.26,1.79h-2.62c.55-2.04,2.82-3.56,5.98-3.56s5.15,1.29,5.15,3.78v5.66h-2.74v-1.35c-1.07,1.05-2.61,1.57-4.43,1.57-2.61,0-4.23-1.07-4.23-2.66Zm4.83,1.04c1.4,0,2.96-.48,3.83-1.39v-1.77c-.64,.4-1.72,.53-2.79,.67-1.65,.22-3.14,.37-3.14,1.39,0,.69,.77,1.1,2.1,1.1Z"/>
        <path class="cls-2" d="M268.22,236.77c0-2.91,2.69-4.91,6.23-4.91,3.24,0,5.71,1.65,6.15,4.11h-2.69c-.35-1.37-1.69-2.21-3.46-2.21-1.97,0-3.46,1.19-3.46,2.97s1.47,3.01,3.46,3.01c1.8,0,3.16-.9,3.48-2.29h2.67c-.38,2.51-2.82,4.19-6.15,4.19-3.58,0-6.23-1.99-6.23-4.88Z"/>
        <path class="cls-2" d="M281.43,229.65h2.79v3.99c.95-1.09,2.34-1.7,3.99-1.7,2.81,0,4.71,1.65,4.71,4.29v5.11h-2.77v-4.68c0-1.82-1.19-2.76-2.91-2.76-1.29,0-2.39,.55-3.02,1.4v6.03h-2.79v-11.7Z"/>
        <path class="cls-2" d="M293.99,229.44h2.76v1.9h-2.76v-1.9Zm0,2.72h2.76v9.19h-2.76v-9.19Z"/>
        <path class="cls-2" d="M297.87,232.16h2.79v1.49c.95-1.09,2.34-1.7,3.99-1.7,2.81,0,4.71,1.65,4.71,4.29v5.11h-2.77v-4.68c0-1.82-1.19-2.76-2.91-2.76-1.29,0-2.39,.55-3.02,1.4v6.03h-2.79v-9.19Z"/>
        <path class="cls-2" d="M310.18,236.77c0-2.87,2.74-4.91,6.2-4.91s6.15,1.95,6.15,5.11v.17h-9.59c.18,1.6,1.54,2.64,3.44,2.64,1.54,0,2.71-.65,3.24-1.75h2.76c-.72,2.14-2.99,3.63-6.03,3.63-3.51,0-6.17-2-6.17-4.88Zm2.91-1.04h6.57c-.45-1.25-1.69-2.04-3.31-2.04s-2.82,.8-3.26,2.04Z"/>
        <path class="cls-2" d="M327.66,229.65h2.91v9.61h9.42v2.09h-12.33v-11.7Z"/>
        <path class="cls-2" d="M340.15,236.77c0-2.87,2.74-4.91,6.2-4.91s6.15,1.95,6.15,5.11v.17h-9.59c.18,1.6,1.54,2.64,3.44,2.64,1.54,0,2.71-.65,3.24-1.75h2.76c-.72,2.14-2.99,3.63-6.03,3.63-3.51,0-6.17-2-6.17-4.88Zm2.91-1.04h6.57c-.45-1.25-1.69-2.04-3.31-2.04s-2.82,.8-3.26,2.04Z"/>
        <path class="cls-2" d="M353.07,238.91c0-2.46,3.33-2.64,5.93-2.97,1.6-.2,2.69-.42,2.69-1.1,0-.64-.85-1.15-2.47-1.15-1.75,0-2.89,.73-3.26,1.79h-2.62c.55-2.04,2.82-3.56,5.98-3.56s5.15,1.29,5.15,3.78v5.66h-2.74v-1.35c-1.07,1.05-2.61,1.57-4.43,1.57-2.61,0-4.23-1.07-4.23-2.66Zm4.83,1.04c1.4,0,2.96-.48,3.83-1.39v-1.77c-.64,.4-1.72,.53-2.79,.67-1.65,.22-3.14,.37-3.14,1.39,0,.69,.77,1.1,2.1,1.1Z"/>
        <path class="cls-2" d="M365.56,232.16h2.79v1.92c.85-1.35,2.14-2.12,3.94-2.12,.12,0,.17,0,.28,.02v2.29c-.3-.03-.6-.05-.9-.05-1.42,0-2.72,.55-3.33,1.6v5.53h-2.79v-9.19Z"/>
        <path class="cls-2" d="M373.4,232.16h2.79v1.49c.95-1.09,2.34-1.7,3.99-1.7,2.81,0,4.71,1.65,4.71,4.29v5.11h-2.77v-4.68c0-1.82-1.19-2.76-2.91-2.76-1.29,0-2.39,.55-3.02,1.4v6.03h-2.79v-9.19Z"/>
        <path class="cls-2" d="M385.96,229.44h2.76v1.9h-2.76v-1.9Zm0,2.72h2.76v9.19h-2.76v-9.19Z"/>
        <path class="cls-2" d="M389.84,232.16h2.79v1.49c.95-1.09,2.34-1.7,3.99-1.7,2.81,0,4.71,1.65,4.71,4.29v5.11h-2.77v-4.68c0-1.82-1.19-2.76-2.91-2.76-1.29,0-2.39,.55-3.02,1.4v6.03h-2.79v-9.19Z"/>
        <path class="cls-2" d="M402.15,236.66c0-2.76,2.31-4.71,5.56-4.71,1.86,0,3.43,.7,4.36,1.89v-1.67h2.77v8.17c0,2.74-2.32,4.26-6.23,4.26-3.27,0-5.43-1.07-6.08-2.87h2.82c.45,.89,1.45,1.32,3.28,1.32,2.16,0,3.44-.84,3.44-2.44v-1.15c-.94,1.2-2.51,1.9-4.36,1.9-3.27,0-5.56-1.94-5.56-4.69Zm9.92,0c0-1.74-1.49-2.87-3.61-2.87s-3.54,1.14-3.54,2.86,1.44,2.87,3.54,2.87,3.61-1.15,3.61-2.86Z"/>
      </g>
      <path class="cls-1" d="M263.01,77.95c0-.09-.02-.19-.02-.28,0-.02,0-.04,0-.06V42.38c0-8.82-4.75-17.05-12.39-21.46L220.09,3.3c-7.55-4.35-16.89-4.39-24.48-.15l-.02-.03c-.09,.05-.16,.11-.25,.16-.01,0-.02,.01-.04,.02l-30.51,17.62c-7.64,4.41-12.39,12.64-12.39,21.46v35.23c0,8.71,4.63,16.83,12.11,21.28v.03c.07,.05,.16,.08,.25,.13,.01,0,.02,.02,.04,.02l30.51,17.62c3.82,2.21,8.11,3.31,12.39,3.31s8.57-1.1,12.39-3.31l30.51-17.62c7.55-4.36,12.26-12.43,12.38-21.13h.03ZM207.7,12.14c2.18,0,4.37,.56,6.31,1.69l30.51,17.62c3.89,2.25,6.31,6.44,6.31,10.93v15.97l-53.97-31.16v-5.18c0-3.34,1.75-6.45,4.57-8.21,1.93-1.1,4.1-1.66,6.26-1.66Zm-10.84,29.08l32.51,18.77-32.51,18.77V41.23Zm-32.3,1.15c0-4.5,2.42-8.69,6.31-10.93l13.83-7.99v62.32l-4.48,2.59c-2.89,1.67-6.45,1.71-9.39,.15-3.87-2.25-6.27-6.43-6.27-10.91V42.38Zm79.96,46.17l-30.51,17.62c-3.89,2.25-8.73,2.25-12.62,0l-13.83-7.99,53.97-31.16,4.48,2.59c2.89,1.67,4.71,4.74,4.82,8.06-.02,4.48-2.43,8.64-6.31,10.88Z"/>
    </g>
  </g>
</svg>